<?xml version="1.0" encoding="UTF-8"?>
<!DOCTYPE svg PUBLIC "-//W3C//DTD SVG 1.1//EN" "http://www.w3.org/Graphics/SVG/1.1/DTD/svg11.dtd">
<!-- Creator: CorelDRAW -->
<svg xmlns="http://www.w3.org/2000/svg" xml:space="preserve" width="2.45072in" height="2.38255in" version="1.1" style="shape-rendering:geometricPrecision; text-rendering:geometricPrecision; image-rendering:optimizeQuality; fill-rule:evenodd; clip-rule:evenodd"
viewBox="0 0 28.02 27.24"
 xmlns:xlink="http://www.w3.org/1999/xlink"
 xmlns:xodm="http://www.corel.com/coreldraw/odm/2003">
 <defs>
  <style type="text/css">
   <![CDATA[
    .fil2 {fill:black}
    .fil4 {fill:#2CBD70}
    .fil0 {fill:#53F19C}
    .fil3 {fill:black;fill-rule:nonzero}
    .fil5 {fill:#2CBD70;fill-rule:nonzero}
    .fil1 {fill:#53F19C;fill-rule:nonzero}
   ]]>
  </style>
 </defs>
 <g id="Layer_x0020_1">
  <metadata id="CorelCorpID_0Corel-Layer"/>
  <g id="_105554590041920">
   <path class="fil0" d="M0.2 3.75c0.14,0.9 0.07,0.83 0.48,1.53l3.29 -1.77c0.86,4.86 1.55,7.67 4.78,13.12 0.58,0.92 1.62,2.61 2.54,3.73l1.48 -1.32c-1.03,-0.84 -4.51,-5.46 -5.31,-9.3 2.73,-1.07 5.62,-1.03 8.14,-0.77l0.82 -1.67c-4.35,-0.35 -6.46,-0.08 -9.36,0.59 -0.73,-1.24 -0.92,-3.34 -0.55,-5.13 8.34,-1.04 9.33,-0.9 17.49,0.63 -0.17,-1.95 0.57,-2.17 -5.07,-2.91 -5.11,-0.68 -15.16,-0.33 -18.73,3.29z"/>
   <path class="fil1" d="M0.4 3.82c0.02,0.13 0.03,0.21 0.04,0.29 0.06,0.44 0.07,0.52 0.31,0.93l3.36 -1.8 0.04 0.25c0.43,2.42 0.82,4.33 1.49,6.31 0.68,1.98 1.65,4.04 3.26,6.75l0.14 0.22c0.57,0.9 1.46,2.32 2.27,3.34l1.18 -1.06c-0.7,-0.66 -2.07,-2.41 -3.25,-4.48 -0.87,-1.52 -1.63,-3.21 -1.96,-4.78l-0.03 -0.15 0.15 -0.06c1.39,-0.54 2.81,-0.81 4.21,-0.9 1.34,-0.09 2.66,-0.02 3.89,0.1l0.64 -1.31c-2.03,-0.15 -3.56,-0.17 -4.92,-0.07 -1.42,0.11 -2.67,0.34 -4.11,0.67l-0.13 0.03 -0.07 -0.12c-0.37,-0.63 -0.61,-1.47 -0.71,-2.38 -0.1,-0.94 -0.06,-1.95 0.13,-2.88l0.03 -0.13 0.13 -0.02c4.18,-0.52 6.52,-0.74 8.84,-0.65 2.28,0.09 4.53,0.5 8.46,1.23 -0.01,-0.14 -0.01,-0.26 -0.02,-0.39 -0.05,-1.25 -0.05,-1.48 -4.88,-2.12 -2.91,-0.39 -7.43,-0.44 -11.44,0.27 -2.92,0.51 -5.56,1.43 -7.07,2.9zm-0.32 0.34c-0.02,-0.12 -0.04,-0.26 -0.06,-0.38l-0.01 -0.09 0.07 -0.07c1.56,-1.58 4.3,-2.54 7.34,-3.07 4.04,-0.71 8.61,-0.66 11.55,-0.27 5.13,0.68 5.14,0.95 5.2,2.47 0.01,0.18 0.01,0.37 0.03,0.61l0.02 0.24 -0.24 -0.04c-4.07,-0.76 -6.35,-1.18 -8.65,-1.27 -2.27,-0.09 -4.57,0.12 -8.65,0.63 -0.16,0.86 -0.19,1.78 -0.1,2.64 0.09,0.8 0.28,1.54 0.59,2.12 1.4,-0.32 2.63,-0.55 4.03,-0.65 1.44,-0.11 3.07,-0.09 5.25,0.09l0.27 0.02 -0.99 2.03 -0.13 -0.01c-1.25,-0.13 -2.59,-0.2 -3.95,-0.11 -1.31,0.09 -2.65,0.33 -3.95,0.82 0.34,1.48 1.07,3.08 1.89,4.52 1.26,2.2 2.72,4.02 3.32,4.52l0.17 0.14 -1.78 1.6 -0.12 -0.15c-0.86,-1.05 -1.82,-2.57 -2.42,-3.53l-0.14 -0.23c-1.62,-2.74 -2.61,-4.81 -3.3,-6.81 -0.66,-1.93 -1.05,-3.8 -1.46,-6.12l-3.23 1.73 -0.09 -0.15c-0.36,-0.62 -0.37,-0.67 -0.45,-1.22z"/>
   <path class="fil2" d="M1.13 7.35c0.29,5.41 6.94,16.82 13.43,19.67 0.53,-0.5 0.83,-0.63 1.35,-1.17 -0.67,-0.35 -2.53,-1.69 -3.07,-1.92 2.8,-2.33 8.5,-7.17 10.64,-14.96l-1.56 -0.55c-0.53,1.8 -3.44,7.54 -5.69,9.18 -3.33,-3.49 -3.55,-4.54 -4.79,-6.98 -0.65,0.11 -1.54,0.13 -1.51,0.53 0.1,1.66 3.2,6.47 5.12,7.9 -0.8,0.97 -2.61,2.79 -3.93,3.33 -5.16,-5.51 -6.88,-10.8 -8.74,-16.04 -0.67,0.39 -0.8,0.42 -1.25,1.01z"/>
   <path class="fil3" d="M1.32 7.41c0.18,2.87 2.13,7.41 4.9,11.45 2.38,3.49 5.36,6.6 8.31,7.94 0.2,-0.18 0.37,-0.32 0.53,-0.45 0.18,-0.14 0.35,-0.28 0.55,-0.47 -0.32,-0.19 -0.75,-0.48 -1.2,-0.77 -0.67,-0.44 -1.36,-0.9 -1.64,-1.02l-0.28 -0.12 0.23 -0.19c1.39,-1.16 3.51,-2.94 5.54,-5.41 2,-2.42 3.92,-5.5 4.99,-9.29l-1.22 -0.43c-0.38,1.14 -1.45,3.4 -2.71,5.43 -0.96,1.55 -2.03,2.96 -2.99,3.66l-0.13 0.1 -0.11 -0.12c-2.84,-2.97 -3.43,-4.19 -4.31,-5.99 -0.14,-0.29 -0.29,-0.59 -0.45,-0.92 -0.09,0.01 -0.18,0.03 -0.27,0.04 -0.48,0.06 -0.96,0.13 -0.95,0.27 0.05,0.8 0.84,2.39 1.86,3.96 1.02,1.57 2.25,3.1 3.19,3.8l0.16 0.12 -0.12 0.15c-0.47,0.57 -1.27,1.41 -2.13,2.14 -0.63,0.54 -1.3,1.01 -1.88,1.25l-0.12 0.05 -0.09 -0.09c-4.96,-5.3 -6.76,-10.38 -8.53,-15.41l-0.17 -0.48 -0.04 0.02c-0.43,0.25 -0.58,0.33 -0.91,0.77zm4.59 11.66c-2.82,-4.13 -4.81,-8.78 -4.96,-11.71l0.04 -0.12c0.41,-0.54 0.57,-0.63 1.07,-0.92 0.07,-0.04 0.14,-0.08 0.23,-0.14l0.19 -0.11 0.32 0.9c1.75,4.96 3.53,9.98 8.37,15.18 0.51,-0.24 1.1,-0.66 1.66,-1.14 0.76,-0.65 1.49,-1.4 1.96,-1.94 -0.95,-0.77 -2.14,-2.26 -3.12,-3.78 -1.05,-1.62 -1.87,-3.28 -1.92,-4.14 -0.03,-0.49 0.63,-0.58 1.27,-0.66 0.13,-0.02 0.26,-0.04 0.4,-0.06l0.13 -0.02 0.06 0.12c0.19,0.38 0.36,0.72 0.52,1.05 0.85,1.74 1.43,2.93 4.13,5.77 0.89,-0.7 1.87,-2.02 2.76,-3.46 1.32,-2.12 2.42,-4.49 2.73,-5.53l0.06 -0.19 1.91 0.67 -0.05 0.17c-1.08,3.93 -3.05,7.11 -5.11,9.6 -1.95,2.36 -3.98,4.1 -5.38,5.27 0.36,0.21 0.91,0.57 1.44,0.92 0.55,0.36 1.09,0.72 1.38,0.88l0.22 0.12 -0.17 0.18c-0.3,0.31 -0.53,0.48 -0.76,0.67 -0.18,0.14 -0.37,0.29 -0.6,0.51l-0.09 0.08 -0.11 -0.05c-3.05,-1.34 -6.13,-4.53 -8.58,-8.12z"/>
   <path class="fil4" d="M25.89 5.86c-5.3,-2.31 -12.36,-2.5 -18.01,-1.6l0.06 1.51c0.02,0.4 -0.06,0.27 0.42,0.2 1.61,-0.25 7.56,-0.73 10.25,-0.03 -1.03,3.38 -2.1,4.93 -3.73,7.53l1.36 1.38c2.4,-3.42 3.49,-5.43 4.3,-8.46l4.88 1.55c-1.86,8 -6.33,11.61 -9.77,15.24l1.78 0.76c3,-2.95 4.7,-4.39 7.72,-9.58 1.59,-3.25 2.57,-6.29 2.66,-10.05 0.05,-2.04 -0.06,-1.59 -1.75,-2.07l-0.19 3.63z"/>
   <path class="fil5" d="M25.81 6.03c-2.45,-1.07 -5.29,-1.68 -8.19,-1.94 -3.26,-0.29 -6.59,-0.13 -9.55,0.33l0.05 1.35 0 0.06c0.06,-0.01 0.12,-0.03 0.21,-0.04 0.98,-0.15 3.56,-0.39 6.04,-0.39 1.62,-0 3.2,0.09 4.28,0.37l0.19 0.05 -0.06 0.18c-0.96,3.14 -1.95,4.71 -3.38,6.98l-0.3 0.47 1.1 1.12c1.13,-1.62 1.96,-2.92 2.6,-4.17 0.67,-1.3 1.14,-2.54 1.54,-4.05l0.05 -0.19 5.23 1.66 -0.04 0.17c-1.63,6.99 -5.23,10.65 -8.41,13.87 -0.42,0.43 -0.84,0.85 -1.22,1.25l1.42 0.6c0.24,-0.24 0.47,-0.46 0.69,-0.67 2.52,-2.46 4.17,-4.07 6.91,-8.77 0.79,-1.62 1.43,-3.18 1.88,-4.8 0.45,-1.62 0.72,-3.31 0.77,-5.17 0.04,-1.5 -0.02,-1.51 -0.81,-1.69 -0.17,-0.04 -0.36,-0.08 -0.58,-0.14l-0.19 3.66 -0.25 -0.11zm-8.16 -2.31c2.84,0.25 5.63,0.84 8.06,1.87l0.19 -3.59 0.22 0.06c0.32,0.09 0.57,0.15 0.78,0.19 1.07,0.24 1.14,0.25 1.1,2.06 -0.05,1.9 -0.32,3.61 -0.78,5.26 -0.46,1.65 -1.11,3.23 -1.9,4.86l-0.01 0.01c-2.77,4.75 -4.43,6.37 -6.98,8.86 -0.25,0.25 -0.51,0.5 -0.78,0.76l-0.09 0.09 -2.14 -0.91 0.18 -0.19c0.47,-0.5 0.94,-0.97 1.41,-1.45 3.12,-3.17 6.65,-6.75 8.27,-13.53l-4.53 -1.44c-0.4,1.45 -0.87,2.67 -1.52,3.94 -0.68,1.32 -1.55,2.68 -2.76,4.4l-0.13 0.18 -1.62 -1.65 0.08 -0.12c0.13,-0.2 0.25,-0.4 0.37,-0.59 1.39,-2.2 2.35,-3.73 3.28,-6.7 -1.04,-0.24 -2.5,-0.32 -4,-0.31 -2.46,0.01 -5.01,0.24 -5.99,0.39 -0.12,0.02 -0.21,0.04 -0.26,0.06 -0.1,0.03 -0.16,0.04 -0.24,0.01l0 -0c-0.13,-0.06 -0.13,-0.14 -0.13,-0.31 -0,-0.03 -0,-0.07 -0,-0.12 0,-0.54 -0.04,-1.13 -0.07,-1.67l0.16 -0.03c3.03,-0.48 6.46,-0.66 9.81,-0.36zm-9.6 2.16l-0.02 -0.01 0 0 0.01 0 0 0c0.02,0.01 0.01,0.01 0.01,-0zm-0.02 -0.01c-0.01,-0.01 -0.02,-0.01 0,0l-0 -0z"/>
  </g>
 </g>
</svg>
