<?xml version="1.0" encoding="utf-8"?>
<svg viewBox="0 0 500 500" xmlns="http://www.w3.org/2000/svg">
  <path d="M 242.559 432.751 L 242.092 422.259 C 242.044 422.234 241.995 422.209 241.947 422.182 C 236.948 419.559 231.218 424.308 232.814 429.725 C 234.316 434.82 235.326 440.313 238.077 444.775 C 241.368 450.021 246.868 453.489 253.024 454.193 L 259.375 458.082 C 261.14 448.248 258.509 438.135 252.177 430.406 C 250.4 428.281 248.363 426.388 246.113 424.773 C 244.592 428.784 242.559 432.751 242.559 432.751 Z" fill="#f2f2f2" style=""/>
  <path d="M 185.686 326.277 C 173.455 313.664 155.731 306.429 137.06 306.429 L 136.34 306.431 C 124.042 306.436 111.962 303.174 101.339 296.98 L 100.233 296.334 L 101.121 295.417 C 105.943 290.43 109.968 284.73 113.057 278.519 C 108.617 282.661 102.566 284.614 96.541 283.856 C 90.176 283.096 84.51 279.466 81.157 274.002 C 74.632 263.413 66.853 248.39 66.853 236.944 C 66.874 217.382 75.119 198.731 89.573 185.552 C 98.728 177.298 103.938 165.539 103.901 153.214 L 103.899 152.348 C 103.897 144.324 104.877 136.33 106.817 128.545 L 107.015 127.76 L 107.824 127.788 C 113.039 127.966 118.257 127.529 123.372 126.485 C 118.575 125.898 113.882 124.65 109.427 122.777 L 108.557 122.424 L 108.853 121.533 C 129.21 108.93 175.158 115.456 201.83 54.434 C 223.457 4.955 299.763 98.359 299.763 152.348 C 299.763 157.857 294.31 165.137 298.392 168.779 C 342.512 208.14 312.07 233.415 302.472 258.847 C 300.195 264.881 305.133 271.507 305.133 278.034 C 305.133 279.142 305.104 280.285 305.05 281.434 L 304.963 283.198 L 303.492 282.218 C 300.582 280.311 297.884 278.099 295.446 275.619 C 300.569 287.413 300.075 300.893 294.099 312.278 C 289.475 321.004 285.002 327.253 280.804 330.846 C 252.885 354.737 211.185 352.734 185.686 326.277 Z" fill="#e6e6e6" style=""/>
  <path d="M 259.551 457.564 C 260.173 457.564 260.699 457.107 260.788 456.491 C 260.84 456.118 266.041 418.613 261.371 368.768 C 257.057 322.733 243.205 256.428 201.711 201.972 C 201.13 201.207 199.937 201.357 199.565 202.245 C 199.391 202.658 199.452 203.132 199.722 203.488 C 240.859 257.472 254.598 323.291 258.882 369 C 263.524 418.556 258.365 455.769 258.312 456.139 C 258.207 456.892 258.791 457.564 259.551 457.564 Z" fill="#3f3d56" style=""/>
  <path d="M 225.69 278.784 C 226.652 278.785 227.254 277.744 226.774 276.911 C 226.686 276.759 226.568 276.627 226.426 276.523 C 226.276 276.414 211.097 265.476 188.402 257.167 C 167.424 249.487 135.525 242.524 102.684 252.978 C 101.766 253.268 101.509 254.441 102.218 255.09 C 102.548 255.392 103.015 255.495 103.441 255.357 C 135.609 245.121 166.93 251.968 187.543 259.514 C 209.912 267.704 224.808 278.438 224.957 278.545 C 225.169 278.7 225.427 278.784 225.69 278.784 Z" fill="#3f3d56" style=""/>
  <path d="M 282.884 136.334 C 282.954 135.375 281.959 134.7 281.094 135.118 C 280.936 135.194 280.795 135.303 280.683 135.438 C 280.563 135.58 268.562 149.933 258.64 171.968 C 249.467 192.339 240.227 223.655 248.286 257.162 C 248.511 258.097 249.663 258.44 250.362 257.777 C 250.686 257.469 250.82 257.012 250.716 256.579 C 242.822 223.758 251.906 193.009 260.918 172.994 C 270.698 151.273 282.476 137.188 282.594 137.049 C 282.763 136.848 282.866 136.597 282.884 136.334 Z" fill="#3f3d56" style=""/>
  <path d="M 281.193 200.77 C 282.248 209.278 288.143 216.291 296.713 216.291 C 305.286 216.291 312.235 209.342 312.235 200.77 C 312.235 192.198 305.249 186.043 296.713 185.251 C 287.657 184.409 279.84 189.849 281.193 200.77 Z" fill="#2f2e41" style=""/>
  <polygon points="303.902 450.728 309.814 450.728 312.625 427.933 303.901 427.933 303.902 450.728" fill="#ffb6b6" style=""/>
  <path d="M 303.694 456.894 L 321.871 456.894 L 321.871 456.664 C 321.869 452.756 318.702 449.591 314.796 449.589 L 314.794 449.589 L 311.476 447.071 L 305.281 449.591 L 303.694 449.591 L 303.694 456.894 Z" fill="#2f2e41" style=""/>
  <polygon points="280.621 450.728 286.532 450.728 289.344 427.933 280.621 427.933 280.621 450.728" fill="#ffb6b6" style=""/>
  <path d="M 280.414 456.894 L 298.588 456.894 L 298.588 456.664 C 298.588 452.756 295.421 449.591 291.514 449.589 L 288.194 447.071 L 281.999 449.591 L 280.414 449.591 L 280.414 456.894 Z" fill="#2f2e41" style=""/>
  <path d="M 324.241 307.944 L 328.42 322.271 L 323.498 382.947 C 323.498 382.947 326.032 386.742 324.241 386.742 C 322.45 386.742 320.154 387.582 321.601 389.849 C 323.047 392.114 318.103 400.247 318.103 400.247 L 311.109 443.452 L 302.196 443.32 C 302.196 443.32 297.666 440.795 300.209 438.244 C 302.752 435.691 304.543 435.691 302.154 433.303 C 299.767 430.916 299.767 431.635 299.767 429.783 C 299.767 427.931 297.374 405.298 303.048 396.618 L 301.338 361.221 L 297.313 395.939 L 289.021 442.257 L 280.437 442.187 C 280.437 442.187 276.471 438.365 276.479 435.535 C 276.486 432.707 278.929 432.471 277.111 430.798 C 275.291 429.125 275.291 403.419 280.664 389.131 C 280.664 389.131 283.704 381.146 280.658 378.409 C 277.611 375.675 280.653 372.545 280.653 372.545 C 280.653 372.545 285.478 370.801 280.65 365.777 C 275.821 360.751 280.623 325.214 280.623 325.214 C 280.623 325.214 275.346 310.87 280.69 305.229 C 286.037 299.587 324.241 307.944 324.241 307.944 Z" fill="#2f2e41" style=""/>
  <path d="M 249.818 332.629 L 257.273 314.611 L 263.147 317.875 L 259.599 336.203 C 261.07 341.008 256.787 345.602 251.891 344.473 C 246.995 343.343 245.157 337.337 248.584 333.663 C 248.951 333.268 249.366 332.92 249.818 332.629 Z" fill="#ffb6b6" style=""/>
  <path d="M 374.921 190.156 L 363.578 206.015 L 358.596 201.506 L 366.204 184.458 C 365.86 179.445 371.072 175.94 375.586 178.15 C 380.099 180.36 380.527 186.625 376.358 189.429 C 375.911 189.73 375.429 189.973 374.921 190.156 Z" fill="#ffb6b6" style=""/>
  <path d="M 325.367 309.415 C 332.725 320.826 295.74 335.309 281.549 329.494 C 279.063 328.476 270.516 325.113 276.359 320.452 C 282.202 315.789 275.682 315.133 275.527 312.099 C 275.424 310.07 276.996 305.617 275.357 305.81 C 273.717 305.999 271.799 303.193 275.369 301.986 C 278.938 300.778 275.407 299.677 275.438 298.53 C 275.779 286.022 285.376 266.124 285.376 266.124 L 268.083 310.332 C 268.083 310.332 268.21 317.981 266.005 315.643 C 263.8 313.307 263.96 320.87 263.96 320.87 C 263.96 320.87 260.681 323.16 262.567 324.433 C 264.452 325.706 260.537 329.623 260.537 329.623 L 251.399 328.969 C 251.399 328.969 251.544 322.181 253.102 320.681 C 254.664 319.18 253.896 316.818 253.896 316.818 C 253.896 316.818 257.958 313.223 255.235 310.303 C 251.732 306.547 264.502 243.129 268.909 243.757 C 270.179 237.574 274.81 232.627 280.895 230.952 L 290.764 228.235 L 292.516 221.281 L 306.413 221.281 L 308.833 225.85 L 319.398 230.619 C 321.388 227.811 322.874 224.851 331.023 223.892 C 331.023 223.892 352.98 203.914 351.909 202.355 C 350.837 200.795 354.239 197.143 354.239 197.143 C 354.239 197.143 357.147 196.19 355.508 195.683 C 353.866 195.176 356.967 194 356.967 194 C 356.967 194 359.838 193.247 358.484 192.253 C 357.13 191.259 363.003 190.607 363.003 190.607 L 370.624 196.824 L 369.084 199.436 C 369.084 199.436 370.025 202.994 368.798 201.695 C 367.573 200.397 367.341 204.165 367.341 204.165 C 367.341 204.165 366.716 208.291 363.003 209.534 C 359.291 210.776 356.477 222.586 356.477 222.586 C 347.723 233.969 337.391 242.849 325.15 248.694 C 329.92 254.17 325.367 309.415 325.367 309.415 Z" style="fill: rgb(170, 234, 157);"/>
  <circle cx="298.43" cy="203.45" r="13.763" fill="#ffb6b6" style=""/>
  <path d="M 284.178 204.949 C 284.614 207.939 287.163 212.113 286.566 212.113 C 285.968 212.113 281.723 199.784 285.968 198.979 C 289.048 198.396 289.735 198.908 292.614 197.661 L 292.207 198.042 C 294.111 199.427 296.761 198.574 298.934 197.672 C 301.114 196.776 303.758 195.923 305.669 197.302 C 306.868 198.168 307.376 199.672 308.121 200.949 C 308.868 202.234 310.246 203.444 311.667 203.05 C 312.808 202.735 313.464 201.457 313.458 200.276 C 313.453 199.093 311.913 197.969 312.431 196.909 C 313.968 193.766 312.586 191.624 309.237 190.146 C 308.02 189.96 306.802 189.771 305.585 189.578 C 306.222 188.693 306.997 187.916 307.877 187.274 C 307.505 186.32 306.862 185.496 306.026 184.903 C 305.052 184.325 303.847 184.366 302.719 184.427 C 300.2 184.558 297.684 184.688 295.167 184.82 C 293.305 184.915 291.377 185.029 289.713 185.883 C 287.634 186.951 286.274 189.035 285.283 191.154 C 283.061 195.918 283.415 199.749 284.178 204.949 Z" fill="#2f2e41" style=""/>
  <path d="M 226.925 458.444 L 362.281 458.628 C 362.83 458.628 363.171 458.035 362.897 457.562 C 362.77 457.342 362.536 457.207 362.281 457.207 L 226.925 457.023 C 226.378 457.023 226.036 457.615 226.31 458.089 C 226.437 458.31 226.671 458.444 226.925 458.444 Z" fill="#cacaca" style=""/>
  <ellipse cx="471.988" cy="695.094" rx="3.139" ry="4.51" transform="matrix(0.143981, -0.98958, 0.98958, 0.143981, -582.304204, 762.828423)" fill="#e6e6e6" style=""/>
  <ellipse cx="521.16" cy="690.296" rx="3.139" ry="4.51" transform="matrix(0.143981, -0.98958, 0.98958, 0.143981, -555.283271, 809.314219)" fill="#3f3d56" style=""/>
  <ellipse cx="458.524" cy="655.286" rx="3.139" ry="4.51" transform="matrix(0.143981, -0.98958, 0.98958, 0.143981, -549.009571, 731.472295)" fill="#ff6584" style=""/>
  <ellipse cx="441.313" cy="640.043" rx="2.85" ry="1.984" transform="matrix(0.007562, -0.999971, 0.999971, 0.007562, -488.168324, 799.436776)" fill="#e6e6e6" style=""/>
  <ellipse cx="434.067" cy="609.671" rx="2.85" ry="1.984" transform="matrix(0.007562, -0.999971, 0.999971, 0.007562, -462.068149, 774.290779)" fill="#3f3d56" style=""/>
  <ellipse cx="490.412" cy="663.123" rx="2.85" ry="1.984" transform="matrix(0.007562, -0.999971, 0.999971, 0.007562, -482.309875, 862.138034)" fill="#e6e6e6" style=""/>
  <ellipse cx="466.651" cy="674.987" rx="2.85" ry="1.984" transform="matrix(0.007562, -0.999971, 0.999971, 0.007562, -508.178284, 845.368972)" fill="#ff6584" style=""/>
  <ellipse cx="499.728" cy="696.915" rx="2.85" ry="1.984" transform="matrix(0.007562, -0.999971, 0.999971, 0.007562, -510.610263, 891.369315)" fill="#3f3d56" style=""/>
  <ellipse cx="849.988" cy="541.094" rx="3.139" ry="4.51" transform="matrix(0.143981, -0.98958, 0.98958, 0.143981, -258.689025, 1067.134486)" fill="#e6e6e6" style=""/>
  <ellipse cx="899.16" cy="536.296" rx="3.139" ry="4.51" transform="matrix(0.143981, -0.98958, 0.98958, 0.143981, -231.668016, 1113.620105)" fill="#3f3d56" style=""/>
  <ellipse cx="836.524" cy="501.286" rx="3.139" ry="4.51" transform="matrix(0.14398, -0.989581, 0.989581, 0.14398, -225.391906, 1035.775667)" fill="#ff6584" style=""/>
  <ellipse cx="819.313" cy="486.043" rx="2.85" ry="1.984" transform="matrix(0.007562, -0.999971, 0.999971, 0.007562, -111.386295, 1086.661884)" fill="#e6e6e6" style=""/>
  <ellipse cx="812.067" cy="455.671" rx="2.85" ry="1.984" transform="matrix(0.007562, -0.999971, 0.999971, 0.007562, -85.286118, 1061.516136)" fill="#3f3d56" style=""/>
  <ellipse cx="868.412" cy="509.123" rx="2.85" ry="1.984" transform="matrix(0.007562, -0.999971, 0.999971, 0.007562, -105.527843, 1149.363631)" fill="#e6e6e6" style=""/>
  <ellipse cx="844.651" cy="520.987" rx="2.85" ry="1.984" transform="matrix(0.007562, -0.999971, 0.999971, 0.007562, -131.396248, 1132.594324)" fill="#ff6584" style=""/>
  <ellipse cx="877.728" cy="542.915" rx="2.85" ry="1.984" transform="matrix(0.007562, -0.999971, 0.999971, 0.007562, -133.828246, 1178.594672)" fill="#3f3d56" style=""/>
  <ellipse cx="666.988" cy="256.094" rx="3.139" ry="4.51" transform="matrix(0.143981, -0.98958, 0.98958, 0.143981, -59.550026, 756.946712)" fill="#fff" style=""/>
  <ellipse cx="716.16" cy="251.296" rx="3.139" ry="4.51" transform="matrix(0.143981, -0.98958, 0.98958, 0.143981, -32.529102, 803.432574)" fill="#3f3d56" style=""/>
  <ellipse cx="653.524" cy="216.286" rx="3.139" ry="4.51" transform="matrix(0.143981, -0.98958, 0.98958, 0.143981, -26.255459, 725.590711)" fill="#ff6584" style=""/>
  <ellipse cx="636.313" cy="201.043" rx="2.85" ry="1.984" transform="matrix(0.007562, -0.999971, 0.999971, 0.007562, 65.74943, 735.69327)" fill="#e6e6e6" style=""/>
  <ellipse cx="629.067" cy="170.671" rx="2.85" ry="1.984" transform="matrix(0.007562, -0.999971, 0.999971, 0.007562, 91.849617, 710.547399)" fill="#3f3d56" style=""/>
  <ellipse cx="685.412" cy="224.123" rx="2.85" ry="1.984" transform="matrix(0.007562, -0.999971, 0.999971, 0.007562, 71.607925, 798.39465)" fill="#e6e6e6" style=""/>
  <ellipse cx="661.651" cy="235.987" rx="2.85" ry="1.984" transform="matrix(0.007562, -0.999971, 0.999971, 0.007562, 45.73948, 781.625709)" fill="#ff6584" style=""/>
  <ellipse cx="694.728" cy="257.915" rx="2.85" ry="1.984" transform="matrix(0.007562, -0.999971, 0.999971, 0.007562, 43.307527, 827.625874)" fill="#3f3d56" style=""/>
</svg>